<svg width="483" height="361" viewBox="0 0 483 361" fill="none" xmlns="http://www.w3.org/2000/svg">
<path opacity="0.1" d="M241.5 0C241.5 0 234.973 52.9085 177.832 123.965C177.832 123.965 135.875 182.678 129.348 213.836C129.348 213.836 234.241 163.796 353.652 213.836C353.652 213.836 329.743 155.857 296.51 112.356C263.278 68.8545 245.829 34.7608 241.5 0Z" fill="#306BF7"/>
<path opacity="0.1" d="M483 315.077C483 315.077 430.802 273.471 360.448 255.928C360.448 255.928 361.182 355.943 240.766 360.38C240.766 360.38 125.489 361.858 119.682 251.559C119.682 251.559 50.7964 273.471 0 310.708C0 310.708 89.9117 208.475 240.766 202.627C240.766 202.627 362.584 199.737 483 315.077Z" fill="#306BF7"/>
</svg>
