<svg preserveAspectRatio="none" width="100%" height="100%" overflow="visible" style="display: block;" viewBox="0 0 1309 340" fill="none" xmlns="http://www.w3.org/2000/svg">
<g id="Capa_1" clip-path="url(#clip0_0_49)">
<g id="Group">
<path id="Vector" d="M493.738 190.032V254.259H464.584V88.2019H511.724C522.262 88.2019 531.412 89.4637 539.111 91.9243C546.873 94.3849 553.247 97.7918 558.359 102.145C563.47 106.498 567.193 111.672 569.718 117.666C572.179 123.659 573.441 130.221 573.441 137.287C573.441 140.063 573.062 143.281 572.368 146.94C571.674 150.599 570.412 154.385 568.645 158.36C566.878 162.334 564.417 166.12 561.325 169.905C558.232 173.691 554.257 177.098 549.398 180.063C544.538 183.091 538.733 185.489 532.044 187.319C525.291 189.148 517.34 190.095 508.253 190.095H493.738V190.032ZM493.738 168.77L508.442 168.644C513.806 168.644 518.728 167.95 523.146 166.625C527.626 165.3 531.412 163.281 534.568 160.694C537.723 158.107 540.184 154.89 541.951 151.041C543.718 147.192 544.538 142.902 544.538 137.981C544.538 134.069 543.907 130.41 542.708 127.003C541.509 123.596 539.553 120.568 536.776 117.981C534 115.394 530.403 113.375 525.922 111.861C521.442 110.347 515.889 109.59 509.199 109.59H493.612V168.707L493.738 168.77Z" fill="var(--fill-0, #306BF7)"/>
<path id="Vector_2" d="M691.953 109.716H627.017V155.205H678.701V176.593H627.017V232.744H694.73V254.259H597.863V88.2019H691.953V109.716Z" fill="var(--fill-0, #306BF7)"/>
<path id="Vector_3" d="M839.557 109.653H788.505V254.259H759.35V109.653H708.361V88.265H839.557V109.653Z" fill="var(--fill-0, #306BF7)"/>
<path id="Vector_4" d="M888.654 254.259H859.625V88.2019H906.702C917.303 88.2019 926.454 89.2744 934.153 91.3565C941.851 93.5016 948.225 96.53 953.274 100.442C958.322 104.353 962.045 109.211 964.506 114.827C966.968 120.442 968.167 126.877 968.167 134.006C968.167 138.675 967.599 143.47 966.4 148.391C965.201 153.312 963.181 157.981 960.278 162.397C957.375 166.814 953.4 170.915 948.351 174.574C943.303 178.233 936.992 181.199 929.293 183.47L979.841 254.132H947.089L902.663 186.246C900.896 186.246 898.877 186.246 896.605 186.12C894.333 186.057 891.746 185.741 888.78 185.3L888.654 254.196V254.259ZM888.717 164.29C890.925 164.543 893.134 164.732 895.406 164.795C897.678 164.858 899.949 164.921 902.284 164.921C908.09 164.921 913.265 164.227 917.871 162.902C922.478 161.577 926.328 159.621 929.546 157.098C932.701 154.574 935.162 151.483 936.803 147.823C938.444 144.164 939.264 140.063 939.264 135.457C939.264 130.852 938.696 126.94 937.56 123.722C936.424 120.505 934.468 117.792 931.628 115.71C928.789 113.628 925.002 112.114 920.206 111.104C915.41 110.095 909.415 109.59 902.158 109.59H888.717V164.29Z" fill="var(--fill-0, #306BF7)"/>
<path id="Vector_5" d="M1147.51 167.76C1147.51 176.088 1146.69 184.101 1145.05 191.798C1143.41 199.495 1141.01 206.688 1137.86 213.375C1134.7 220.063 1130.92 226.12 1126.44 231.546C1121.95 236.972 1116.91 241.64 1111.29 245.552C1105.67 249.464 1099.55 252.429 1092.93 254.574C1086.3 256.719 1079.23 257.729 1071.72 257.729C1059.73 257.729 1049 255.647 1039.67 251.356C1030.33 247.066 1022.37 241.136 1015.94 233.438C1009.5 225.741 1004.52 216.53 1001.17 205.741C997.763 194.953 996.059 183.028 996.059 169.968C996.059 156.909 997.826 145.868 1001.36 135.331C1004.89 124.795 1009.94 115.71 1016.51 108.076C1023.07 100.442 1031.08 94.511 1040.49 90.2839C1049.89 86.0568 1060.55 83.9117 1072.35 83.9117C1083.4 83.9117 1093.49 85.8044 1102.71 89.7161C1111.92 93.6278 1119.87 99.1167 1126.5 106.309C1133.12 113.502 1138.3 122.334 1142.02 132.681C1145.75 143.028 1147.58 154.763 1147.58 167.76H1147.51ZM1116.78 170.41C1116.78 160.883 1115.77 152.177 1113.69 144.416C1111.61 136.656 1108.64 129.905 1104.73 124.353C1100.81 118.801 1096.14 114.448 1090.65 111.356C1085.1 108.265 1078.98 106.751 1072.1 106.751C1065.22 106.751 1059.23 108.202 1053.74 111.104C1048.18 114.006 1043.45 118.17 1039.41 123.533C1035.44 128.959 1032.28 135.457 1030.07 143.091C1027.86 150.726 1026.73 159.243 1026.73 168.644C1026.73 178.044 1027.68 187.003 1029.51 195.079C1031.4 203.155 1034.18 210.158 1037.9 216.088C1041.62 222.019 1046.23 226.625 1051.72 229.968C1057.21 233.312 1063.58 234.953 1070.78 234.953C1077.97 234.953 1084.41 233.186 1090.09 229.59C1095.77 225.994 1100.56 221.262 1104.54 215.268C1108.45 209.274 1111.54 202.461 1113.63 194.637C1115.71 186.814 1116.72 178.801 1116.72 170.347L1116.78 170.41Z" fill="var(--fill-0, #306BF7)"/>
<path id="Vector_6" d="M1224.25 88.1388H1250.25L1309.06 254.259H1274.86L1257.57 202.334H1208.41L1191.88 254.259H1164.3L1224.25 88.1388ZM1214.4 181.009H1252.27L1233.84 121.073L1214.47 181.009H1214.4Z" fill="var(--fill-0, #306BF7)"/>
</g>
<g id="Group_2">
<path id="Vector_7" d="M546.873 309.148V322.019H543.529V291.356H551.859C555.014 291.356 557.412 292.114 559.116 293.691C560.82 295.205 561.703 297.413 561.703 300.252C561.703 302.587 560.694 304.669 558.737 306.435C556.781 308.202 553.878 309.085 550.218 309.085H546.873V309.148ZM546.873 306.562H550.092C552.616 306.562 554.572 305.994 556.087 304.795C557.538 303.596 558.295 302.019 558.295 300C558.295 297.918 557.728 296.341 556.529 295.331C555.33 294.322 553.373 293.88 550.723 293.88H546.936V306.562H546.873Z" fill="var(--fill-0, #306BF7)"/>
<path id="Vector_8" d="M588.965 294.069H575.902V304.543H586.314V307.129H575.902V319.369H589.533V322.082H572.557V291.42H588.902V294.132L588.965 294.069Z" fill="var(--fill-0, #306BF7)"/>
<path id="Vector_9" d="M620.707 294.196H611.178V322.019H607.833V294.196H598.368V291.356H620.707V294.196Z" fill="var(--fill-0, #306BF7)"/>
<path id="Vector_10" d="M633.959 322.019H630.615V291.356H638.945C642.163 291.356 644.624 292.114 646.328 293.691C647.969 295.205 648.789 297.35 648.789 300C648.789 301.956 648.158 303.722 646.833 305.237C645.571 306.751 644.056 307.76 642.415 308.265L650.998 322.019H647.022L639.134 308.896C639.134 308.896 637.241 308.896 633.959 308.959V322.019ZM633.959 306.435H637.114C639.765 306.435 641.784 305.868 643.173 304.669C644.624 303.47 645.318 301.956 645.318 300.126C645.318 297.981 644.75 296.467 643.551 295.521C642.352 294.574 640.396 294.069 637.682 294.069H633.959V306.498V306.435Z" fill="var(--fill-0, #306BF7)"/>
<path id="Vector_11" d="M673.905 322.524C669.551 322.524 666.269 321.009 663.934 318.044C661.599 315.079 660.4 311.104 660.4 306.12C660.4 301.64 661.726 297.981 664.376 295.016C667.026 292.05 670.308 290.599 674.157 290.599C678.385 290.599 681.667 292.05 684.002 295.016C686.337 297.981 687.473 301.83 687.473 306.688C687.473 311.167 686.211 314.953 683.623 317.981C681.036 321.009 677.818 322.524 673.905 322.524ZM674.094 319.685C676.619 319.685 678.89 318.486 680.91 316.151C682.929 313.817 683.939 310.347 683.939 305.741C683.939 302.839 683.182 300 681.541 297.35C679.9 294.7 677.502 293.312 674.157 293.312C670.813 293.312 668.415 294.511 666.585 296.909C664.755 299.306 663.808 302.334 663.808 306.057C663.808 310.41 664.755 313.754 666.711 316.088C668.667 318.423 671.065 319.621 673.968 319.621L674.094 319.685Z" fill="var(--fill-0, #306BF7)"/>
<path id="Vector_12" d="M716.438 322.019H699.337V291.356H702.681V319.306H716.501V322.019H716.438Z" fill="var(--fill-0, #306BF7)"/>
<path id="Vector_13" d="M742.816 294.069H729.753V304.543H740.166V307.129H729.753V319.369H743.384V322.082H726.409V291.42H742.753V294.132L742.816 294.069Z" fill="var(--fill-0, #306BF7)"/>
<path id="Vector_14" d="M767.617 322.524C763.263 322.524 759.981 321.009 757.646 318.044C755.311 315.079 754.112 311.104 754.112 306.12C754.112 301.64 755.437 297.981 758.088 295.016C760.738 292.05 764.02 290.599 767.869 290.599C772.097 290.599 775.379 292.05 777.714 295.016C780.049 297.981 781.185 301.83 781.185 306.688C781.185 311.167 779.922 314.953 777.335 317.981C774.748 321.009 771.529 322.524 767.617 322.524ZM767.806 319.685C770.33 319.685 772.602 318.486 774.622 316.151C776.641 313.817 777.651 310.347 777.651 305.741C777.651 302.839 776.893 300 775.253 297.35C773.612 294.7 771.214 293.312 767.869 293.312C764.525 293.312 762.127 294.511 760.297 296.909C758.467 299.306 757.52 302.334 757.52 306.057C757.52 310.41 758.467 313.754 760.423 316.088C762.379 318.423 764.777 319.621 767.68 319.621L767.806 319.685Z" fill="var(--fill-0, #306BF7)"/>
<path id="Vector_15" d="M794.058 315.773C795.005 316.782 796.141 317.729 797.466 318.486C798.791 319.243 800.369 319.685 802.073 319.685C804.092 319.685 805.67 319.243 806.869 318.297C808.068 317.35 808.699 316.025 808.699 314.259C808.699 312.492 808.131 311.293 807.058 310.41C805.985 309.59 804.281 308.77 802.136 307.95L800.432 307.256C798.097 306.435 796.077 305.3 794.5 303.912C792.922 302.524 792.102 300.631 792.102 298.297C792.102 295.962 792.985 294.069 794.815 292.681C796.645 291.293 798.917 290.599 801.694 290.599C803.776 290.599 805.543 290.915 806.995 291.546C808.383 292.177 809.708 293.123 810.844 294.259L808.888 296.467C808.068 295.71 807.058 294.953 805.922 294.322C804.786 293.691 803.398 293.375 801.694 293.375C799.927 293.375 798.412 293.817 797.213 294.637C796.014 295.457 795.446 296.593 795.446 297.918C795.446 299.558 796.141 300.82 797.466 301.767C798.791 302.713 800.179 303.407 801.568 303.975L804.471 305.174C807.437 306.309 809.456 307.508 810.529 308.77C811.601 310.032 812.106 311.735 812.106 313.817C812.106 316.593 811.16 318.738 809.203 320.252C807.247 321.767 804.849 322.524 802.009 322.524C800.873 322.524 799.801 322.461 798.791 322.271C797.844 322.082 796.898 321.83 796.077 321.514C795.257 321.199 794.437 320.694 793.679 320.189C792.922 319.621 792.165 318.991 791.471 318.233L793.995 315.836L794.058 315.773Z" fill="var(--fill-0, #306BF7)"/>
<path id="Vector_16" d="M847.824 291.356C852.683 291.356 856.343 292.681 858.741 295.331C861.139 297.981 862.338 301.577 862.338 306.12C862.338 311.23 861.076 315.142 858.552 317.855C856.028 320.568 852.368 321.956 847.635 321.956H841.324V291.293H847.887L847.824 291.356ZM844.606 293.943V319.495H847.067C850.727 319.495 853.567 318.36 855.649 316.088C857.732 313.817 858.741 310.473 858.741 306.057C858.741 302.208 857.795 299.18 855.838 297.098C853.882 295.016 850.979 293.943 847.13 293.943H844.543H844.606Z" fill="var(--fill-0, #306BF7)"/>
<path id="Vector_17" d="M890.61 294.069H877.547V304.543H887.959V307.129H877.547V319.369H891.178V322.082H874.202V291.42H890.547V294.132L890.61 294.069Z" fill="var(--fill-0, #306BF7)"/>
<path id="Vector_18" d="M923.93 322.019H920.585V291.356H928.915C932.133 291.356 934.594 292.114 936.298 293.691C937.939 295.205 938.759 297.35 938.759 300C938.759 301.956 938.128 303.722 936.803 305.237C935.541 306.751 934.026 307.76 932.386 308.265L940.968 322.019H936.992L929.104 308.896C929.104 308.896 927.211 308.896 923.93 308.959V322.019ZM923.93 306.435H927.085C929.735 306.435 931.755 305.868 933.143 304.669C934.594 303.47 935.289 301.956 935.289 300.126C935.289 297.981 934.721 296.467 933.522 295.521C932.323 294.574 930.366 294.069 927.653 294.069H923.93V306.498V306.435Z" fill="var(--fill-0, #306BF7)"/>
<path id="Vector_19" d="M963.875 322.524C959.521 322.524 956.24 321.009 953.905 318.044C951.57 315.079 950.371 311.104 950.371 306.12C950.371 301.64 951.696 297.981 954.346 295.016C956.997 292.05 960.278 290.599 964.128 290.599C968.356 290.599 971.637 292.05 973.972 295.016C976.307 297.981 977.443 301.83 977.443 306.688C977.443 311.167 976.181 314.953 973.594 317.981C971.006 321.009 967.788 322.524 963.875 322.524ZM964.002 319.685C966.526 319.685 968.798 318.486 970.817 316.151C972.836 313.817 973.846 310.347 973.846 305.741C973.846 302.839 973.089 300 971.448 297.35C969.807 294.7 967.409 293.312 964.065 293.312C960.72 293.312 958.322 294.511 956.492 296.909C954.662 299.306 953.715 302.334 953.715 306.057C953.715 310.41 954.662 313.754 956.618 316.088C958.574 318.423 960.973 319.621 963.875 319.621L964.002 319.685Z" fill="var(--fill-0, #306BF7)"/>
<path id="Vector_20" d="M997.448 291.356H1000.67L1010.83 322.019H1007.17L1003.88 311.609H993.535L990.254 322.019H986.972L997.448 291.356ZM994.229 309.211H1003.19L998.773 295.205L994.166 309.211H994.229Z" fill="var(--fill-0, #306BF7)"/>
<path id="Vector_21" d="M1037.9 294.196H1028.37V322.019H1025.02V294.196H1015.56V291.356H1037.9V294.196Z" fill="var(--fill-0, #306BF7)"/>
<path id="Vector_22" d="M1053.74 291.356H1056.96L1067.12 322.019H1063.46L1060.17 311.609H1049.83L1046.54 322.019H1043.26L1053.74 291.356ZM1050.52 309.211H1059.48L1055.06 295.205L1050.46 309.211H1050.52Z" fill="var(--fill-0, #306BF7)"/>
<path id="Vector_23" d="M1080.24 296.845V322.019H1076.96V291.356H1080.24L1095.45 316.656V291.356H1098.8V322.019H1095.58L1080.24 296.845Z" fill="var(--fill-0, #306BF7)"/>
<path id="Vector_24" d="M1130.47 315.773C1131.42 316.782 1132.56 317.729 1133.88 318.486C1135.21 319.243 1136.78 319.685 1138.49 319.685C1140.51 319.685 1142.09 319.243 1143.28 318.297C1144.48 317.35 1145.11 316.025 1145.11 314.259C1145.11 312.492 1144.55 311.293 1143.47 310.41C1142.4 309.59 1140.7 308.77 1138.55 307.95L1136.85 307.256C1134.51 306.435 1132.49 305.3 1130.92 303.912C1129.34 302.524 1128.52 300.631 1128.52 298.297C1128.52 295.962 1129.4 294.069 1131.23 292.681C1133.06 291.293 1135.33 290.599 1138.11 290.599C1140.19 290.599 1141.96 290.915 1143.41 291.546C1144.8 292.177 1146.12 293.123 1147.26 294.259L1145.3 296.467C1144.48 295.71 1143.47 294.953 1142.34 294.322C1141.2 293.691 1139.81 293.375 1138.17 293.375C1136.41 293.375 1134.89 293.817 1133.69 294.637C1132.49 295.457 1131.93 296.593 1131.93 297.918C1131.93 299.558 1132.62 300.82 1133.94 301.767C1135.27 302.713 1136.66 303.407 1138.05 303.975L1140.95 305.174C1143.92 306.309 1145.93 307.508 1147.01 308.77C1148.08 310.032 1148.59 311.735 1148.59 313.817C1148.59 316.593 1147.58 318.738 1145.68 320.252C1143.73 321.767 1141.33 322.524 1138.49 322.524C1137.35 322.524 1136.28 322.461 1135.27 322.271C1134.32 322.082 1133.38 321.83 1132.56 321.514C1131.74 321.136 1130.92 320.694 1130.16 320.189C1129.4 319.621 1128.64 318.991 1127.95 318.233L1130.47 315.836V315.773Z" fill="var(--fill-0, #306BF7)"/>
<path id="Vector_25" d="M1158.37 320.189C1158.37 319.621 1158.56 319.054 1159 318.549C1159.44 318.044 1160.01 317.792 1160.7 317.792C1161.4 317.792 1161.96 318.044 1162.41 318.486C1162.85 318.991 1163.04 319.495 1163.04 320.126C1163.04 320.757 1162.85 321.262 1162.41 321.767C1161.96 322.271 1161.4 322.524 1160.7 322.524C1160.01 322.524 1159.44 322.271 1159 321.83C1158.56 321.388 1158.3 320.82 1158.3 320.189H1158.37Z" fill="var(--fill-0, #306BF7)"/>
<path id="Vector_26" d="M1182.16 291.356H1185.38L1195.54 322.019H1191.88L1188.59 311.609H1178.25L1174.96 322.019H1171.68L1182.16 291.356ZM1179 309.211H1187.96L1183.55 295.205L1179 309.211Z" fill="var(--fill-0, #306BF7)"/>
<path id="Vector_27" d="M1204.37 320.189C1204.37 319.621 1204.56 319.054 1205 318.549C1205.44 318.044 1206.01 317.792 1206.71 317.792C1207.4 317.792 1207.97 318.044 1208.41 318.486C1208.85 318.991 1209.04 319.495 1209.04 320.126C1209.04 320.757 1208.85 321.262 1208.41 321.767C1207.97 322.271 1207.4 322.524 1206.71 322.524C1206.01 322.524 1205.44 322.271 1205 321.83C1204.56 321.388 1204.31 320.82 1204.31 320.189H1204.37Z" fill="var(--fill-0, #306BF7)"/>
</g>
<path id="Vector_28" d="M228.316 0C228.316 0 222.132 50.0315 167.987 117.224C167.987 117.224 128.231 172.744 122.046 202.208C122.046 202.208 221.438 154.89 334.586 202.208C334.586 202.208 311.931 147.382 280.441 106.246C248.952 65.1104 232.418 32.8707 228.316 0Z" fill="var(--fill-0, #306BF7)"/>
<path id="Vector_29" d="M456.569 297.476C456.569 297.476 407.221 258.423 340.707 241.956C340.707 241.956 341.401 335.836 227.559 340C227.559 340 118.575 341.388 113.085 237.855C113.085 237.855 47.9603 258.423 -0.0631056 293.375C-0.0631056 293.375 84.9402 197.413 227.559 191.924C227.559 191.924 342.727 189.211 456.569 297.476Z" fill="var(--fill-0, #306BF7)"/>
</g>
<defs>
<clipPath id="clip0_0_49">
<rect width="1309" height="340" fill="white"/>
</clipPath>
</defs>
</svg>
