<svg preserveAspectRatio="none" width="100%" height="100%" overflow="visible" style="display: block;" viewBox="0 0 208.68 53.89" fill="none" xmlns="http://www.w3.org/2000/svg">
<g id="Capa_1" clip-path="url(#clip0_0_7)">
<g id="Group">
<path id="Vector" d="M79.49 30.12V40.3H74.87V13.98H82.34C84.01 13.98 85.46 14.18 86.68 14.57C87.91 14.96 88.92 15.5 89.73 16.19C90.54 16.88 91.14 17.7 91.53 18.65C91.92 19.6 92.12 20.64 92.12 21.76C92.12 22.2 92.06 22.71 91.95 23.29C91.84 23.87 91.64 24.47 91.36 25.1C91.08 25.72 90.69 26.33 90.2 26.93C89.71 27.53 89.08 28.07 88.31 28.54C87.54 29.02 86.63 29.4 85.56 29.69C84.49 29.98 83.23 30.13 81.79 30.13H79.49V30.12ZM79.49 26.75L81.82 26.73C82.67 26.73 83.45 26.62 84.15 26.41C84.85 26.2 85.46 25.88 85.96 25.47C86.46 25.06 86.85 24.55 87.13 23.94C87.41 23.33 87.54 22.65 87.54 21.87C87.54 21.25 87.44 20.67 87.25 20.13C87.06 19.59 86.75 19.11 86.31 18.7C85.87 18.29 85.3 17.97 84.59 17.73C83.88 17.49 83 17.37 81.94 17.37H79.47V26.74L79.49 26.75Z" fill="var(--fill-0, #306BF7)"/>
<path id="Vector_2" d="M110.89 17.39H100.6V24.6H108.8V27.99H100.6V36.89H111.33V40.3H95.98V13.98H110.89V17.39Z" fill="var(--fill-0, #306BF7)"/>
<path id="Vector_3" d="M134.29 17.38H126.2V40.3H121.58V17.38H113.5V13.99H134.29V17.38Z" fill="var(--fill-0, #306BF7)"/>
<path id="Vector_4" d="M142.06 40.3H137.46V13.98H144.92C146.6 13.98 148.05 14.15 149.27 14.48C150.49 14.82 151.5 15.3 152.3 15.92C153.1 16.55 153.69 17.31 154.08 18.2C154.47 19.1 154.66 20.11 154.66 21.24C154.66 21.98 154.57 22.74 154.38 23.52C154.19 24.3 153.87 25.04 153.41 25.74C152.95 26.45 152.32 27.09 151.52 27.67C150.72 28.25 149.72 28.72 148.5 29.08L156.51 40.28H151.32L144.28 29.52C144 29.52 143.68 29.52 143.32 29.5C142.96 29.49 142.55 29.44 142.08 29.37L142.06 40.29V40.3ZM142.08 26.04C142.43 26.08 142.78 26.11 143.14 26.12C143.5 26.13 143.86 26.14 144.23 26.14C145.15 26.14 145.97 26.03 146.7 25.82C147.43 25.61 148.04 25.3 148.55 24.9C149.06 24.5 149.44 24.01 149.7 23.43C149.96 22.85 150.09 22.2 150.09 21.47C150.09 20.74 150 20.12 149.82 19.61C149.64 19.09 149.33 18.67 148.88 18.34C148.43 18.01 147.83 17.77 147.07 17.61C146.32 17.45 145.36 17.38 144.21 17.38H142.08V26.05V26.04Z" fill="var(--fill-0, #306BF7)"/>
<path id="Vector_5" d="M183.09 26.6C183.09 27.92 182.96 29.19 182.7 30.41C182.44 31.63 182.06 32.77 181.56 33.83C181.06 34.89 180.46 35.85 179.75 36.71C179.04 37.57 178.24 38.31 177.35 38.93C176.46 39.55 175.49 40.02 174.44 40.36C173.39 40.7 172.27 40.86 171.08 40.86C169.18 40.86 167.48 40.53 166 39.85C164.52 39.17 163.26 38.23 162.24 37.01C161.22 35.79 160.43 34.33 159.9 32.62C159.36 30.91 159.09 29.02 159.09 26.95C159.09 24.88 159.37 23.13 159.93 21.46C160.49 19.79 161.29 18.35 162.33 17.14C163.37 15.93 164.64 14.99 166.13 14.32C167.62 13.65 169.31 13.31 171.18 13.31C172.93 13.31 174.53 13.62 175.99 14.23C177.45 14.84 178.71 15.72 179.76 16.86C180.81 18 181.63 19.4 182.22 21.04C182.81 22.69 183.1 24.54 183.1 26.6H183.09ZM178.22 27.02C178.22 25.51 178.05 24.13 177.72 22.9C177.39 21.67 176.92 20.6 176.3 19.72C175.68 18.84 174.94 18.15 174.07 17.66C173.2 17.17 172.22 16.93 171.13 16.93C170.04 16.93 169.09 17.16 168.22 17.62C167.34 18.08 166.59 18.74 165.95 19.59C165.31 20.44 164.83 21.48 164.47 22.69C164.11 23.9 163.94 25.25 163.94 26.74C163.94 28.23 164.09 29.65 164.39 30.93C164.69 32.21 165.13 33.32 165.72 34.26C166.31 35.2 167.04 35.93 167.91 36.46C168.78 36.99 169.79 37.25 170.93 37.25C172.07 37.25 173.09 36.97 173.99 36.4C174.89 35.83 175.66 35.08 176.28 34.13C176.91 33.18 177.39 32.1 177.72 30.86C178.05 29.62 178.22 28.35 178.22 27.01V27.02Z" fill="var(--fill-0, #306BF7)"/>
<path id="Vector_6" d="M195.25 13.97H199.37L208.69 40.3H203.27L200.53 32.07H192.74L190.12 40.3H185.75L195.25 13.97ZM193.68 28.69H199.68L196.76 19.19L193.69 28.69H193.68Z" fill="var(--fill-0, #306BF7)"/>
</g>
<g id="Group_2">
<path id="Vector_7" d="M87.4 46.81C87.67 46.77 88.02 46.73 88.46 46.73C89.01 46.73 89.41 46.86 89.66 47.09C89.89 47.29 90.03 47.6 90.03 47.98C90.03 48.36 89.92 48.67 89.7 48.89C89.41 49.2 88.93 49.36 88.39 49.36C88.22 49.36 88.07 49.36 87.95 49.32V51.03H87.4V46.8V46.81ZM87.95 48.87C88.07 48.9 88.22 48.91 88.41 48.91C89.08 48.91 89.48 48.59 89.48 48C89.48 47.41 89.08 47.16 88.47 47.16C88.23 47.16 88.05 47.18 87.95 47.2V48.86V48.87Z" fill="var(--fill-0, #666666)"/>
<path id="Vector_8" d="M94 49.03H92.34V50.57H94.19V51.03H91.78V46.75H94.09V47.21H92.33V48.56H93.99V49.02L94 49.03Z" fill="var(--fill-0, #666666)"/>
<path id="Vector_9" d="M96.84 47.23H95.54V46.76H98.71V47.23H97.4V51.04H96.84V47.23Z" fill="var(--fill-0, #666666)"/>
<path id="Vector_10" d="M100.2 46.82C100.48 46.76 100.88 46.73 101.26 46.73C101.85 46.73 102.23 46.84 102.5 47.08C102.72 47.27 102.84 47.56 102.84 47.89C102.84 48.46 102.48 48.83 102.03 48.98V49C102.36 49.12 102.56 49.42 102.66 49.86C102.8 50.46 102.9 50.87 102.99 51.03H102.42C102.35 50.91 102.25 50.54 102.13 50.01C102 49.42 101.77 49.2 101.27 49.18H100.75V51.03H100.2V46.81V46.82ZM100.75 48.77H101.31C101.9 48.77 102.27 48.45 102.27 47.96C102.27 47.41 101.87 47.17 101.29 47.16C101.02 47.16 100.83 47.19 100.74 47.21V48.77H100.75Z" fill="var(--fill-0, #666666)"/>
<path id="Vector_11" d="M108.3 48.86C108.3 50.33 107.4 51.11 106.31 51.11C105.22 51.11 104.39 50.23 104.39 48.94C104.39 47.58 105.23 46.69 106.38 46.69C107.53 46.69 108.3 47.59 108.3 48.86ZM104.98 48.93C104.98 49.84 105.48 50.66 106.35 50.66C107.22 50.66 107.72 49.85 107.72 48.88C107.72 48.03 107.28 47.14 106.35 47.14C105.42 47.14 104.98 47.98 104.98 48.92V48.93Z" fill="var(--fill-0, #666666)"/>
<path id="Vector_12" d="M110.03 46.76H110.58V50.57H112.41V51.03H110.03V46.75V46.76Z" fill="var(--fill-0, #666666)"/>
<path id="Vector_13" d="M116.26 49.03H114.6V50.57H116.45V51.03H114.04V46.75H116.35V47.21H114.59V48.56H116.25V49.02L116.26 49.03Z" fill="var(--fill-0, #666666)"/>
<path id="Vector_14" d="M121.84 48.86C121.84 50.33 120.94 51.11 119.85 51.11C118.76 51.11 117.93 50.23 117.93 48.94C117.93 47.58 118.77 46.69 119.92 46.69C121.07 46.69 121.84 47.59 121.84 48.86ZM118.52 48.93C118.52 49.84 119.02 50.66 119.89 50.66C120.76 50.66 121.26 49.85 121.26 48.88C121.26 48.03 120.82 47.14 119.89 47.14C118.96 47.14 118.52 47.98 118.52 48.92V48.93Z" fill="var(--fill-0, #666666)"/>
<path id="Vector_15" d="M123.49 50.37C123.74 50.52 124.1 50.65 124.48 50.65C125.04 50.65 125.37 50.35 125.37 49.92C125.37 49.52 125.14 49.29 124.56 49.07C123.86 48.82 123.43 48.46 123.43 47.86C123.43 47.19 123.98 46.7 124.81 46.7C125.25 46.7 125.56 46.8 125.76 46.91L125.61 47.36C125.47 47.28 125.19 47.16 124.8 47.16C124.22 47.16 123.99 47.51 123.99 47.8C123.99 48.2 124.25 48.4 124.84 48.63C125.56 48.91 125.93 49.26 125.93 49.89C125.93 50.55 125.44 51.12 124.43 51.12C124.02 51.12 123.57 51 123.34 50.85L123.48 50.39L123.49 50.37Z" fill="var(--fill-0, #666666)"/>
<path id="Vector_16" d="M130.08 46.82C130.42 46.77 130.82 46.73 131.25 46.73C132.04 46.73 132.61 46.91 132.98 47.26C133.36 47.61 133.58 48.1 133.58 48.8C133.58 49.5 133.36 50.07 132.96 50.46C132.56 50.86 131.9 51.08 131.07 51.08C130.68 51.08 130.35 51.06 130.07 51.03V46.82H130.08ZM130.63 50.6C130.77 50.63 130.97 50.63 131.19 50.63C132.37 50.63 133.01 49.97 133.01 48.81C133.01 47.8 132.44 47.16 131.28 47.16C130.99 47.16 130.78 47.19 130.63 47.22V50.6Z" fill="var(--fill-0, #666666)"/>
<path id="Vector_17" d="M137.53 49.03H135.87V50.57H137.72V51.03H135.31V46.75H137.62V47.21H135.86V48.56H137.52V49.02L137.53 49.03Z" fill="var(--fill-0, #666666)"/>
<path id="Vector_18" d="M141.82 46.82C142.1 46.76 142.5 46.73 142.88 46.73C143.47 46.73 143.85 46.84 144.12 47.08C144.34 47.27 144.46 47.56 144.46 47.89C144.46 48.46 144.1 48.83 143.65 48.98V49C143.98 49.12 144.18 49.42 144.28 49.86C144.42 50.46 144.52 50.87 144.61 51.03H144.04C143.97 50.91 143.87 50.54 143.75 50.01C143.62 49.42 143.39 49.2 142.89 49.18H142.37V51.03H141.82V46.81V46.82ZM142.37 48.77H142.93C143.52 48.77 143.89 48.45 143.89 47.96C143.89 47.41 143.49 47.17 142.91 47.16C142.64 47.16 142.45 47.19 142.36 47.21V48.77H142.37Z" fill="var(--fill-0, #666666)"/>
<path id="Vector_19" d="M149.92 48.86C149.92 50.33 149.02 51.11 147.93 51.11C146.84 51.11 146.01 50.23 146.01 48.94C146.01 47.58 146.85 46.69 148 46.69C149.15 46.69 149.92 47.59 149.92 48.86ZM146.6 48.93C146.6 49.84 147.1 50.66 147.97 50.66C148.84 50.66 149.34 49.85 149.34 48.88C149.34 48.03 148.9 47.14 147.97 47.14C147.04 47.14 146.6 47.98 146.6 48.92V48.93Z" fill="var(--fill-0, #666666)"/>
<path id="Vector_20" d="M152.26 49.69L151.82 51.04H151.25L152.7 46.76H153.37L154.83 51.04H154.24L153.78 49.69H152.26ZM153.66 49.26L153.24 48.03C153.15 47.75 153.08 47.5 153.02 47.25H153.01C152.95 47.5 152.88 47.76 152.79 48.03L152.37 49.27H153.66V49.26Z" fill="var(--fill-0, #666666)"/>
<path id="Vector_21" d="M156.79 47.23H155.49V46.76H158.66V47.23H157.35V51.04H156.79V47.23Z" fill="var(--fill-0, #666666)"/>
<path id="Vector_22" d="M160.36 49.69L159.92 51.04H159.35L160.8 46.76H161.47L162.93 51.04H162.34L161.88 49.69H160.36ZM161.76 49.26L161.34 48.03C161.25 47.75 161.18 47.5 161.12 47.25H161.11C161.05 47.5 160.98 47.76 160.89 48.03L160.47 49.27H161.76V49.26Z" fill="var(--fill-0, #666666)"/>
<path id="Vector_23" d="M164.57 51.04V46.76H165.17L166.54 48.92C166.86 49.42 167.1 49.87 167.31 50.31H167.32C167.27 49.73 167.26 49.21 167.26 48.55V46.76H167.78V51.04H167.22L165.86 48.87C165.56 48.39 165.28 47.91 165.06 47.44H165.04C165.07 47.98 165.08 48.5 165.08 49.21V51.04H164.56H164.57Z" fill="var(--fill-0, #666666)"/>
<path id="Vector_24" d="M172.04 50.37C172.29 50.52 172.65 50.65 173.03 50.65C173.59 50.65 173.92 50.35 173.92 49.92C173.92 49.52 173.69 49.29 173.11 49.07C172.41 48.82 171.98 48.46 171.98 47.86C171.98 47.19 172.53 46.7 173.36 46.7C173.8 46.7 174.11 46.8 174.31 46.91L174.16 47.36C174.02 47.28 173.73 47.16 173.35 47.16C172.77 47.16 172.54 47.51 172.54 47.8C172.54 48.2 172.8 48.4 173.39 48.63C174.11 48.91 174.48 49.26 174.48 49.89C174.48 50.55 173.99 51.12 172.98 51.12C172.57 51.12 172.12 51 171.89 50.85L172.03 50.39L172.04 50.37Z" fill="var(--fill-0, #666666)"/>
<path id="Vector_25" d="M176.11 50.71C176.11 50.47 176.27 50.31 176.49 50.31C176.71 50.31 176.86 50.47 176.86 50.71C176.86 50.95 176.71 51.11 176.48 51.11C176.26 51.11 176.11 50.94 176.11 50.71Z" fill="var(--fill-0, #666666)"/>
<path id="Vector_26" d="M179.28 49.69L178.84 51.04H178.27L179.72 46.76H180.39L181.85 51.04H181.26L180.8 49.69H179.28ZM180.69 49.26L180.27 48.03C180.17 47.75 180.11 47.5 180.05 47.25H180.04C179.98 47.5 179.91 47.76 179.82 48.03L179.4 49.27H180.69V49.26Z" fill="var(--fill-0, #666666)"/>
<path id="Vector_27" d="M183.34 50.71C183.34 50.47 183.5 50.31 183.72 50.31C183.94 50.31 184.09 50.47 184.09 50.71C184.09 50.95 183.94 51.11 183.71 51.11C183.49 51.11 183.34 50.94 183.34 50.71Z" fill="var(--fill-0, #666666)"/>
</g>
<path id="Vector_28" d="M36.18 0C36.18 0 35.2 7.93 26.62 18.58C26.62 18.58 20.32 27.38 19.34 32.05C19.34 32.05 35.09 24.55 53.02 32.05C53.02 32.05 49.43 23.36 44.44 16.84C39.44 10.32 36.84 5.22 36.18 0Z" fill="url(#paint0_radial_0_7)"/>
<path id="Vector_29" d="M72.35 47.15C72.35 47.15 64.53 40.96 53.99 38.35C53.99 38.35 54.1 53.23 36.06 53.89C36.06 53.89 18.79 54.11 17.92 37.7C17.92 37.7 7.6 40.96 -0.01 46.5C-0.01 46.5 13.46 31.29 36.06 30.42C36.06 30.42 54.31 29.99 72.35 47.15Z" fill="url(#paint1_radial_0_7)"/>
</g>
<defs>
<radialGradient id="paint0_radial_0_7" cx="0" cy="0" r="1" gradientUnits="userSpaceOnUse" gradientTransform="translate(35.63 24.15) scale(19.83)">
<stop stop-color="#00A1DF"/>
<stop offset="1" stop-color="#324D85"/>
</radialGradient>
<radialGradient id="paint1_radial_0_7" cx="0" cy="0" r="1" gradientUnits="userSpaceOnUse" gradientTransform="translate(36.47 35.71) scale(23.8 23.8)">
<stop stop-color="#D6D6D6"/>
<stop offset="0.99" stop-color="#5C5C5B"/>
</radialGradient>
<clipPath id="clip0_0_7">
<rect width="208.68" height="53.89" fill="white"/>
</clipPath>
</defs>
</svg>
